<svg width="122" height="108" viewBox="0 0 122 108" fill="none" xmlns="http://www.w3.org/2000/svg">
<path d="M33.0781 28.7109C33.0781 32.0703 32.4844 35.0156 31.2969 37.5469C30.1094 40.0781 28.4062 42.0312 26.1875 43.4062C23.9844 44.7812 21.4531 45.4688 18.5938 45.4688C15.7656 45.4688 13.2422 44.7891 11.0234 43.4297C8.80469 42.0703 7.08594 40.1328 5.86719 37.6172C4.64844 35.0859 4.03125 32.1797 4.01562 28.8984V27.2109C4.01562 23.8516 4.61719 20.8984 5.82031 18.3516C7.03906 15.7891 8.75 13.8281 10.9531 12.4688C13.1719 11.0937 15.7031 10.4062 18.5469 10.4062C21.3906 10.4062 23.9141 11.0937 26.1172 12.4688C28.3359 13.8281 30.0469 15.7891 31.25 18.3516C32.4688 20.8984 33.0781 23.8438 33.0781 27.1875V28.7109ZM25.9531 27.1641C25.9531 23.5859 25.3125 20.8672 24.0312 19.0078C22.75 17.1484 20.9219 16.2188 18.5469 16.2188C16.1875 16.2188 14.3672 17.1406 13.0859 18.9844C11.8047 20.8125 11.1562 23.5 11.1406 27.0469V28.7109C11.1406 32.1953 11.7812 34.8984 13.0625 36.8203C14.3438 38.7422 16.1875 39.7031 18.5938 39.7031C20.9531 39.7031 22.7656 38.7812 24.0312 36.9375C25.2969 35.0781 25.9375 32.375 25.9531 28.8281V27.1641ZM43.9766 19.6406L44.1875 22.5703C46 20.3047 48.4297 19.1719 51.4766 19.1719C54.1641 19.1719 56.1641 19.9609 57.4766 21.5391C58.7891 23.1172 59.4609 25.4766 59.4922 28.6172V45H52.7188V28.7812C52.7188 27.3438 52.4062 26.3047 51.7812 25.6641C51.1562 25.0078 50.1172 24.6797 48.6641 24.6797C46.7578 24.6797 45.3281 25.4922 44.375 27.1172V45H37.6016V19.6406H43.9766ZM76.3203 45.4688C72.6016 45.4688 69.5703 44.3281 67.2266 42.0469C64.8984 39.7656 63.7344 36.7266 63.7344 32.9297V32.2734C63.7344 29.7266 64.2266 27.4531 65.2109 25.4531C66.1953 23.4375 67.5859 21.8906 69.3828 20.8125C71.1953 19.7188 73.2578 19.1719 75.5703 19.1719C79.0391 19.1719 81.7656 20.2656 83.75 22.4531C85.75 24.6406 86.75 27.7422 86.75 31.7578V34.5234H70.6016C70.8203 36.1797 71.4766 37.5078 72.5703 38.5078C73.6797 39.5078 75.0781 40.0078 76.7656 40.0078C79.375 40.0078 81.4141 39.0625 82.8828 37.1719L86.2109 40.8984C85.1953 42.3359 83.8203 43.4609 82.0859 44.2734C80.3516 45.0703 78.4297 45.4688 76.3203 45.4688ZM75.5469 24.6562C74.2031 24.6562 73.1094 25.1094 72.2656 26.0156C71.4375 26.9219 70.9062 28.2188 70.6719 29.9062H80.0938V29.3672C80.0625 27.8672 79.6562 26.7109 78.875 25.8984C78.0938 25.0703 76.9844 24.6562 75.5469 24.6562ZM30.2305 97H23.7852L11.2383 76.418V97H4.79297V65.7188H11.2383L23.8066 86.3438V65.7188H30.2305V97ZM42.0039 97H35.7734V73.7539H42.0039V97ZM35.4082 67.7383C35.4082 66.8073 35.7161 66.041 36.332 65.4395C36.9622 64.8379 37.8145 64.5371 38.8887 64.5371C39.9486 64.5371 40.7936 64.8379 41.4238 65.4395C42.054 66.041 42.3691 66.8073 42.3691 67.7383C42.3691 68.6836 42.0469 69.457 41.4023 70.0586C40.7721 70.6602 39.9342 70.9609 38.8887 70.9609C37.8431 70.9609 36.998 70.6602 36.3535 70.0586C35.7233 69.457 35.4082 68.6836 35.4082 67.7383ZM46.2363 85.2051C46.2363 81.6387 47.0814 78.7669 48.7715 76.5898C50.4759 74.4128 52.7676 73.3242 55.6465 73.3242C58.196 73.3242 60.1797 74.1979 61.5977 75.9453L61.8555 73.7539H67.4844V96.2266C67.4844 98.2604 67.0189 100.029 66.0879 101.533C65.1712 103.037 63.875 104.183 62.1992 104.971C60.5234 105.758 58.5612 106.152 56.3125 106.152C54.6081 106.152 52.9466 105.809 51.3281 105.121C49.7096 104.448 48.485 103.574 47.6543 102.5L50.4043 98.7188C51.9512 100.452 53.8275 101.318 56.0332 101.318C57.6803 101.318 58.9622 100.874 59.8789 99.9863C60.7956 99.1126 61.2539 97.8665 61.2539 96.248V95.002C59.8216 96.6204 57.9382 97.4297 55.6035 97.4297C52.8105 97.4297 50.5475 96.3411 48.8145 94.1641C47.0957 91.9727 46.2363 89.0723 46.2363 85.4629V85.2051ZM52.4453 85.6562C52.4453 87.7617 52.8678 89.416 53.7129 90.6191C54.5579 91.8079 55.7181 92.4023 57.1934 92.4023C59.084 92.4023 60.4375 91.6934 61.2539 90.2754V80.5C60.4232 79.082 59.084 78.373 57.2363 78.373C55.7467 78.373 54.5723 78.9818 53.7129 80.1992C52.8678 81.4167 52.4453 83.2357 52.4453 85.6562ZM78.334 76.2891C79.9811 74.3125 82.0508 73.3242 84.543 73.3242C89.5846 73.3242 92.1413 76.2533 92.2129 82.1113V97H86.0039V82.2832C86.0039 80.9512 85.7174 79.9701 85.1445 79.3398C84.5716 78.6953 83.6191 78.373 82.2871 78.373C80.4681 78.373 79.1504 79.0749 78.334 80.4785V97H72.125V64H78.334V76.2891ZM104.33 68.0391V73.7539H108.305V78.3086H104.33V89.9102C104.33 90.7695 104.495 91.3854 104.824 91.7578C105.154 92.1302 105.784 92.3164 106.715 92.3164C107.402 92.3164 108.011 92.2663 108.541 92.166V96.8711C107.324 97.2435 106.07 97.4297 104.781 97.4297C100.427 97.4297 98.207 95.2311 98.1211 90.834V78.3086H94.7266V73.7539H98.1211V68.0391H104.33ZM118.08 87.3965H112.924L112.193 65.7188H118.811L118.08 87.3965ZM115.502 90.791C116.548 90.791 117.385 91.099 118.016 91.7148C118.66 92.3307 118.982 93.1185 118.982 94.0781C118.982 95.0234 118.66 95.804 118.016 96.4199C117.385 97.0358 116.548 97.3438 115.502 97.3438C114.471 97.3438 113.633 97.0358 112.988 96.4199C112.358 95.804 112.043 95.0234 112.043 94.0781C112.043 93.1328 112.358 92.3522 112.988 91.7363C113.633 91.1061 114.471 90.791 115.502 90.791Z" fill="white"/>
<circle cx="20" cy="28" r="18.5" fill="white" stroke="black" stroke-width="3"/>
</svg>
